name Visual3d_SIMM_input.mot
datacolumns 42
datarows 22
range 1.230000 1.440000
endheader
time	pelvis_tx	pelvis_ty	pelvis_tz	pelvis_tilt	pelvis_list	pelvis_rotation	hip_flexion_r	hip_adduction_r	hip_rotation_r	knee_angle_r	ankle_angle_r	subtalar_angle_r	mtp_angle_r	hip_flexion_l	hip_adduction_l	hip_rotation_l	knee_angle_l	ankle_angle_l	subtalar_angle_l	mtp_angle_l	lumbar_extension	lumbar_bending	lumbar_rotation	ground_force_vx	ground_force_vy	ground_force_vz	ground_force_px	ground_force_py	ground_force_pz	ground_force_vx	ground_force_vy	ground_force_vz	ground_force_px	ground_force_py	ground_force_pz	ground_torque_x	ground_torque_y	ground_torque_z	ground_torque_x	ground_torque_y	ground_torque_z
1.230000	0.134131	0.669329	-0.212401	-15.468555	5.681664	-9.859247	-3.772579	-4.421383	5.663922	-24.653527	5.515210	-0.000000	0.000000	43.778084	0.304529	-12.156537	-22.134763	9.600082	-0.000000	0.000000	28.818282	-3.504847	9.838035	41.445724	114.661140	-2.182494	-0.202481	-0.000294	-0.205353	-41.481590	188.218185	9.653407	0.260048	-0.005662	-0.272783	-0.001179	1.059401	-0.002272	0.000968	-0.085125	-0.001730
1.240000	0.148068	0.669981	-0.214291	-14.456876	6.824881	-9.404325	-3.893218	-6.289310	3.657527	-27.338276	1.893050	-0.000000	0.000000	42.312708	2.419577	-10.482246	-22.849225	8.367308	-0.000000	0.000000	28.254193	-4.770482	10.094543	33.668602	87.902550	-0.868129	-0.200876	-0.000770	-0.205518	-48.927929	216.151520	13.595303	0.263529	-0.006118	-0.274986	-0.000796	0.715000	-0.001533	0.000407	-0.035836	-0.000728
1.250000	0.161891	0.670672	-0.216186	-13.519837	7.916374	-8.980890	-3.840480	-8.046996	1.906374	-30.222890	-1.703203	-0.000000	0.000000	40.948009	4.471033	-8.860851	-23.651036	7.364405	-0.000000	0.000000	27.734147	-5.965040	10.338560	25.376730	63.393066	0.145338	-0.199817	-0.000813	-0.206227	-55.058758	241.803513	17.691700	0.267215	-0.006420	-0.277307	-0.000426	0.383075	-0.000821	-0.000492	0.043259	0.000879
1.260000	0.175447	0.671403	-0.218016	-12.719055	8.896136	-8.608566	-3.497628	-9.590296	0.555908	-33.307404	-5.119279	-0.000000	0.000000	39.727990	6.363914	-7.361259	-24.527059	6.716274	-0.000000	0.000000	27.289500	-7.019566	10.546341	17.381834	42.473789	0.802725	-0.198835	-0.000531	-0.207412	-59.550816	264.803497	21.643635	0.270887	-0.006510	-0.279563	-0.000100	0.089394	-0.000192	-0.001735	0.152592	0.003102
1.270000	0.188616	0.672201	-0.219700	-12.075949	9.733702	-8.312923	-2.793999	-10.864637	-0.329822	-36.590635	-8.215261	-0.000000	0.000000	38.640682	8.037400	-6.040479	-25.417241	6.459398	-0.000000	0.000000	26.925425	-7.898345	10.717047	10.466139	25.928436	1.122549	-0.197434	-0.000028	-0.208882	-62.092926	284.600555	25.164377	0.274303	-0.006396	-0.281571	0.000166	-0.148809	0.000319	-0.003313	0.291374	0.005923
1.280000	0.201308	0.673092	-0.221156	-11.592769	10.415952	-8.118069	-1.693610	-11.843824	-0.748661	-40.058937	-10.861599	-0.000000	0.000000	37.652169	9.451569	-4.941898	-26.244942	6.565893	-0.000000	0.000000	26.637581	-8.586564	10.859896	0.000000	0.000000	0.000000	0.000000	0.000000	0.000000	-62.598526	300.466064	28.012716	0.277293	-0.006128	-0.283201	0.000000	0.000000	0.000000	-0.005128	0.450946	0.009166
1.290000	0.213473	0.674090	-0.222322	-11.266372	10.938587	-8.037311	-0.188591	-12.515847	-0.744792	-43.678329	-12.943550	-0.000000	0.000000	36.730155	10.582697	-4.089282	-26.941649	6.971531	-0.000000	0.000000	26.422073	-9.082159	10.980898	0.000000	0.000000	0.000000	0.000000	0.000000	0.000000	-61.197456	311.795929	30.058350	0.279757	-0.005775	-0.284397	0.000000	0.000000	0.000000	-0.006968	0.612797	0.012456
1.300000	0.225099	0.675205	-0.223164	-11.090131	11.302741	-8.068951	1.700612	-12.878769	-0.396738	-47.392306	-14.372622	-0.000000	0.000000	35.849334	11.424056	-3.482090	-27.458324	7.596546	-0.000000	0.000000	26.275495	-9.392643	11.076485	0.000000	0.000000	0.000000	0.000000	0.000000	0.000000	-58.220421	318.182983	31.245537	0.281696	-0.005395	-0.285164	0.000000	0.000000	0.000000	-0.008618	0.757846	0.015405
1.310000	0.236212	0.676440	-0.223678	-11.050782	11.511783	-8.197517	3.924467	-12.939264	0.195187	-51.124120	-15.099479	-0.000000	0.000000	34.987972	11.984046	-3.095377	-27.768720	8.360565	-0.000000	0.000000	26.190517	-9.531679	11.132418	0.000000	0.000000	0.000000	0.000000	0.000000	0.000000	-54.110321	319.447845	31.579762	0.283205	-0.005028	-0.285550	0.000000	0.000000	0.000000	-0.009938	0.874008	0.017766
1.320000	0.246873	0.677809	-0.223892	-11.124138	11.568105	-8.395344	6.403655	-12.712725	0.916341	-54.780822	-15.124158	-0.000000	0.000000	34.120736	12.284004	-2.880377	-27.867151	9.191786	-0.000000	0.000000	26.150414	-9.515917	11.122990	0.000000	0.000000	0.000000	0.000000	0.000000	0.000000	-49.307899	315.776154	31.165602	0.284445	-0.004696	-0.285638	0.000000	0.000000	0.000000	-0.010884	0.957198	0.019457
1.330000	0.257170	0.679330	-0.223865	-11.276538	11.471818	-8.624470	9.036883	-12.223231	1.645863	-58.260516	-14.498434	-0.000000	0.000000	33.217375	12.355494	-2.767964	-27.763759	10.031731	-0.000000	0.000000	26.129466	-9.362545	11.012914	0.000000	0.000000	0.000000	0.000000	0.000000	0.000000	-44.201199	307.736420	30.203829	0.285609	-0.004410	-0.285541	0.000000	0.000000	0.000000	-0.011465	1.008289	0.020495
1.340000	0.267200	0.681011	-0.223672	-11.475811	11.222268	-8.842669	11.723752	-11.501764	2.272833	-61.465282	-13.318599	-0.000000	0.000000	32.253632	12.233877	-2.681829	-27.480557	10.837339	-0.000000	0.000000	26.102961	-9.086961	10.767006	0.000000	0.000000	0.000000	0.000000	0.000000	0.000000	-39.110245	296.197968	28.930111	0.286894	-0.004167	-0.285367	0.000000	0.000000	0.000000	-0.011738	1.032283	0.020983
1.350000	0.277054	0.682842	-0.223391	-11.701006	10.821304	-9.011993	14.386689	-10.584488	2.712453	-64.313758	-11.711497	-0.000000	0.000000	31.221570	11.951564	-2.556141	-27.047114	11.580924	-0.000000	0.000000	26.056950	-8.702286	10.361930	0.000000	0.000000	0.000000	0.000000	0.000000	0.000000	-34.287071	282.229584	27.552042	0.288486	-0.003963	-0.285203	0.000000	0.000000	0.000000	-0.011777	1.035721	0.021053
1.360000	0.286802	0.684791	-0.223086	-11.942734	10.275955	-9.104889	16.977040	-9.511617	2.913216	-66.747026	-9.817241	-0.000000	0.000000	30.128593	11.535089	-2.347613	-26.495123	12.248704	-0.000000	0.000000	25.989404	-8.221145	9.791623	0.000000	0.000000	0.000000	0.000000	0.000000	0.000000	-29.899950	266.974121	26.207150	0.290526	-0.003792	-0.285100	0.000000	0.000000	0.000000	-0.011648	1.024311	0.020821
1.370000	0.296501	0.686811	-0.222796	-12.198010	9.599544	-9.106258	19.469709	-8.326275	2.855697	-68.728594	-7.772436	-0.000000	0.000000	28.990229	11.005252	-2.041274	-25.854139	12.838688	-0.000000	0.000000	25.905859	-7.657943	9.067084	0.000000	0.000000	0.000000	0.000000	0.000000	0.000000	-26.020895	251.537506	24.952240	0.293092	-0.003652	-0.285061	0.000000	0.000000	0.000000	-0.011401	1.002627	0.020380
1.380000	0.306186	0.688847	-0.222540	-12.464938	8.812268	-9.012009	21.854775	-7.074515	2.546080	-70.241700	-5.697038	-0.000000	0.000000	27.823088	10.379738	-1.650106	-25.149122	13.357499	-0.000000	0.000000	25.814399	-7.031081	8.213246	0.000000	0.000000	0.000000	0.000000	0.000000	0.000000	-22.634014	236.899368	23.778866	0.296170	-0.003539	-0.285065	0.000000	0.000000	0.000000	-0.011074	0.973891	0.019796
1.390000	0.315883	0.690844	-0.222321	-12.739594	7.941076	-8.824491	24.129938	-5.806315	2.006326	-71.285366	-3.685981	-0.000000	0.000000	26.639864	9.677857	-1.204200	-24.398430	13.816045	-0.000000	0.000000	25.722093	-6.364374	7.262063	0.000000	0.000000	0.000000	0.000000	0.000000	0.000000	-19.664261	223.836731	22.646048	0.299655	-0.003450	-0.285071	0.000000	0.000000	0.000000	-0.010682	0.939372	0.019094
1.400000	0.325612	0.692755	-0.222140	-13.014987	7.017714	-8.546279	26.294323	-4.575875	1.262908	-71.869347	-1.806871	-0.000000	0.000000	25.446160	8.925027	-0.731674	-23.612324	14.225317	-0.000000	0.000000	25.632788	-5.686285	6.242503	0.000000	0.000000	0.000000	0.000000	0.000000	0.000000	-17.010929	212.846420	21.509954	0.303377	-0.003377	-0.285050	0.000000	0.000000	0.000000	-0.010208	0.897720	0.018248
1.410000	0.335387	0.694536	-0.222003	-13.281518	6.075314	-8.178053	28.344824	-3.437463	0.341387	-72.009250	-0.102462	-0.000000	0.000000	24.239872	8.152524	-0.246699	-22.793246	14.594062	-0.000000	0.000000	25.546396	-5.026539	5.175574	0.000000	0.000000	0.000000	0.000000	0.000000	0.000000	-14.578662	204.113281	20.355217	0.307153	-0.003312	-0.284990	0.000000	0.000000	0.000000	-0.009626	0.846556	0.017208
1.420000	0.345217	0.696155	-0.221913	-13.528662	5.145700	-7.723886	30.276507	-2.436115	-0.728106	-71.723680	1.407321	-0.000000	0.000000	23.013774	7.391866	0.246254	-21.937973	14.928598	-0.000000	0.000000	25.460070	-4.412022	4.080401	0.000000	0.000000	0.000000	0.000000	0.000000	0.000000	-12.297767	197.555801	19.216200	0.310829	-0.003251	-0.284886	0.000000	0.000000	0.000000	-0.008932	0.785523	0.015967
1.430000	0.355106	0.697582	-0.221864	-13.746631	4.257868	-7.194984	32.083943	-1.601733	-1.906902	-71.032581	2.722871	-0.000000	0.000000	21.759318	6.670177	0.744581	-21.041277	15.233463	-0.000000	0.000000	25.369648	-3.864545	2.980963	0.000000	0.000000	0.000000	0.000000	0.000000	0.000000	-10.136737	192.914322	18.162905	0.314337	-0.003190	-0.284752	0.000000	0.000000	0.000000	-0.008160	0.717625	0.014587
1.440000	0.365047	0.698796	-0.221841	-13.927968	3.435620	-6.606507	33.761550	-0.949351	-3.154290	-69.954852	3.857591	-0.000000	0.000000	20.471059	6.008007	1.244096	-20.101803	15.512794	-0.000000	0.000000	25.270708	-3.399476	1.903746	0.000000	0.000000	0.000000	0.000000	0.000000	0.000000	-8.098590	189.861298	17.278374	0.317711	-0.003127	-0.284618	0.000000	0.000000	0.000000	-0.007374	0.648510	0.013182
